<?xml version="1.0" standalone="no"?>
<!DOCTYPE svg PUBLIC "-//W3C//DTD SVG 20010904//EN"
 "http://www.w3.org/TR/2001/REC-SVG-20010904/DTD/svg10.dtd">
<svg version="1.0" xmlns="http://www.w3.org/2000/svg"
 width="320.000000pt" height="320.000000pt" viewBox="0 0 320.000000 320.000000"
 preserveAspectRatio="xMidYMid meet">

<g transform="translate(0.000000,320.000000) scale(0.100000,-0.100000)"
fill="#000000" stroke="none">
<path d="M3025 2546 l-160 -94 -57 30 c-57 30 -59 30 -170 23 -147 -9 -303 7
-397 40 -91 32 -108 29 -226 -38 -205 -116 -971 -560 -983 -569 -7 -6 -12 -33
-12 -64 0 -65 51 -29 -435 -309 l-370 -214 0 -192 0 -192 139 -80 139 -81 -24
-18 c-13 -10 -30 -23 -37 -28 -20 -17 -16 -124 6 -142 29 -26 312 -188 327
-188 8 0 52 22 99 50 47 27 93 50 102 50 10 0 214 113 453 251 1222 705 1426
824 1442 840 10 10 19 42 23 90 12 127 45 218 122 333 22 34 36 70 41 106 l8
55 72 40 72 40 1 178 c0 97 -3 177 -7 177 -5 0 -80 -43 -168 -94z m-1211 -523
c149 -86 306 -177 349 -201 43 -25 75 -48 70 -52 -4 -4 -107 -65 -228 -134
-179 -104 -223 -125 -240 -118 -15 7 -632 362 -693 399 -17 10 436 275 457
268 8 -3 136 -76 285 -162z m-549 -254 c116 -66 276 -159 358 -206 l147 -85 0
-39 c0 -21 -2 -39 -4 -39 -2 0 -57 31 -122 69 -66 38 -209 121 -319 185 -110
63 -219 127 -242 140 -38 22 -43 30 -43 61 0 19 3 35 8 35 4 0 102 -54 217
-121z m-167 -19 c37 -22 195 -114 352 -204 156 -90 286 -168 287 -172 2 -8
-707 -423 -750 -440 -9 -3 -34 5 -56 18 l-40 24 179 103 c241 139 225 122 160
163 -93 59 -478 278 -489 278 -6 0 -97 -50 -203 -111 -201 -115 -211 -119
-258 -81 -22 18 -21 19 361 240 211 122 385 222 387 222 1 0 33 -18 70 -40z
m1162 -232 l-1 -223 -327 -188 c-180 -103 -460 -264 -622 -358 -162 -94 -301
-173 -307 -176 -10 -4 -13 32 -13 159 l0 165 388 223 c213 123 395 230 405
238 12 11 17 30 17 68 0 45 4 56 23 68 50 32 423 245 430 246 4 0 7 -100 7
-222z m-1543 -82 c-3 -6 -75 -52 -161 -102 l-156 -89 0 -92 c0 -81 -2 -94 -19
-103 -11 -5 -22 -10 -25 -10 -3 0 -6 51 -6 113 l0 113 183 105 c173 99 201
109 184 65z m57 23 c-3 -5 -10 -7 -15 -3 -5 3 -7 10 -3 15 3 5 10 7 15 3 5 -3
7 -10 3 -15z m24 -51 c-2 -17 -40 -44 -163 -115 l-160 -92 -3 -87 c-3 -82 -12
-114 -33 -114 -5 0 -9 51 -9 113 l0 112 178 102 c97 56 181 103 185 103 5 0 7
-10 5 -22z m52 12 c0 -5 -4 -10 -10 -10 -5 0 -10 5 -10 10 0 6 5 10 10 10 6 0
10 -4 10 -10z m9 -83 c-8 -4 -81 -47 -164 -95 l-150 -87 -3 -92 c-2 -66 -7
-93 -16 -96 -19 -7 -23 13 -25 120 l-2 91 183 105 c169 98 183 105 187 84 1
-12 -3 -25 -10 -30z m61 43 c0 -5 -5 -10 -11 -10 -5 0 -7 5 -4 10 3 6 8 10 11
10 2 0 4 -4 4 -10z m30 -54 c0 -20 -24 -37 -165 -117 l-165 -94 -1 -85 c-1
-47 -1 -88 0 -92 0 -4 -8 -12 -19 -18 -19 -10 -20 -7 -20 103 l0 114 183 107
c100 58 183 106 185 106 1 0 2 -11 2 -24z m45 15 c3 -5 1 -12 -5 -16 -5 -3
-10 1 -10 9 0 18 6 21 15 7z m-673 -208 l3 -138 220 -128 c219 -127 310 -177
320 -177 3 0 5 19 5 43 0 23 3 79 7 124 l6 82 38 -20 39 -19 0 -166 0 -166
-32 19 c-18 10 -180 104 -360 207 l-328 188 0 164 0 164 40 -20 39 -20 3 -137z
m696 145 c-2 -17 -42 -45 -165 -116 l-163 -95 0 -86 c0 -79 -9 -111 -30 -111
-4 0 -7 51 -8 113 l-2 112 177 102 c98 56 182 102 186 102 5 1 7 -9 5 -21z
m52 12 c0 -5 -4 -10 -10 -10 -5 0 -10 5 -10 10 0 6 5 10 10 10 6 0 10 -4 10
-10z m25 -52 c-1 -19 -34 -42 -163 -117 l-162 -94 -1 -81 c-1 -44 -1 -84 0
-88 0 -4 -8 -12 -19 -18 -19 -10 -20 -7 -21 57 -2 67 1 157 4 159 28 18 354
203 358 204 3 0 5 -10 4 -22z m55 12 c0 -5 -4 -10 -10 -10 -5 0 -10 5 -10 10
0 6 5 10 10 10 6 0 10 -4 10 -10z m18 -71 c-2 -5 -75 -52 -163 -102 l-160 -93
-3 -92 c-2 -80 -5 -93 -23 -102 -19 -11 -20 -8 -17 105 l3 116 180 104 c172
99 198 108 183 64z m52 31 c0 -5 -4 -10 -10 -10 -5 0 -10 5 -10 10 0 6 5 10
10 10 6 0 10 -4 10 -10z m-820 -205 c0 -9 -6 -12 -15 -9 -8 4 -12 10 -9 15 8
14 24 10 24 -6z m70 -41 c0 -8 -5 -12 -10 -9 -6 4 -8 11 -5 16 9 14 15 11 15
-7z m80 -44 c0 -5 -4 -10 -10 -10 -5 0 -10 5 -10 10 0 6 5 10 10 10 6 0 10 -4
10 -10z m70 -40 c0 -5 -4 -10 -10 -10 -5 0 -10 5 -10 10 0 6 5 10 10 10 6 0
10 -4 10 -10z m70 -46 c0 -8 -5 -12 -10 -9 -6 4 -8 11 -5 16 9 14 15 11 15 -7z
m76 -51 c-10 -10 -19 5 -10 18 6 11 8 11 12 0 2 -7 1 -15 -2 -18z m-97 -84
c77 -45 141 -85 141 -89 0 -4 -10 -12 -23 -19 -21 -11 -37 -4 -162 68 -76 44
-144 82 -149 85 -12 4 23 35 40 36 7 0 75 -37 153 -81z m171 51 c0 -5 -4 -10
-10 -10 -5 0 -10 5 -10 10 0 6 5 10 10 10 6 0 10 -4 10 -10z m-235 -113 l140
-82 3 -42 c2 -24 0 -43 -4 -43 -4 0 -72 37 -150 83 l-144 82 0 43 c0 23 3 42
8 41 4 0 70 -37 147 -82z m284 -64 c17 -10 31 -21 31 -25 0 -7 -121 -78 -133
-78 -4 0 -7 18 -7 40 0 35 5 43 33 60 39 24 38 24 76 3z"/>
</g>
</svg>
